<svg xmlns="http://www.w3.org/2000/svg" xmlns:xlink="http://www.w3.org/1999/xlink" viewBox="0,0,256,256" width="512px" height="512px"><g fill="none" fill-rule="nonzero" stroke="none" stroke-width="1" stroke-linecap="butt" stroke-linejoin="miter" stroke-miterlimit="10" stroke-dasharray="" stroke-dashoffset="0" font-family="none" font-weight="none" font-size="none" text-anchor="none" style="mix-blend-mode: normal"><g transform="scale(0.1024,0.1024)"><circle cx="1250" cy="1250" r="1250" id="Layer_2" fill="none"></circle><g id="Layer_1"><path d="M836.64,2117.7c0,0.45 -0.12,0.83 -0.33,1.16c-0.25,0.33 -0.64,0.59 -1.2,0.79c-0.58,0.2 -1.3,0.36 -2.17,0.5c-0.89,0.13 -2.03,0.21 -3.46,0.21c-1.3,0 -2.44,-0.07 -3.37,-0.21c-0.93,-0.14 -1.68,-0.3 -2.22,-0.5c-0.54,-0.2 -0.93,-0.46 -1.16,-0.79c-0.23,-0.33 -0.33,-0.71 -0.33,-1.16v-93.33h-0.17l-37.76,93.74c-0.17,0.38 -0.39,0.71 -0.7,0.99c-0.31,0.28 -0.75,0.51 -1.33,0.7c-0.58,0.2 -1.26,0.33 -2.07,0.41c-0.81,0.08 -1.76,0.12 -2.86,0.12c-1.16,0 -2.15,-0.05 -2.98,-0.17c-0.83,-0.11 -1.51,-0.26 -2.07,-0.46c-0.56,-0.2 -0.97,-0.42 -1.28,-0.7c-0.31,-0.28 -0.52,-0.58 -0.62,-0.91l-36.11,-93.74h-0.08v93.33c0,0.45 -0.12,0.83 -0.33,1.16c-0.25,0.33 -0.64,0.59 -1.2,0.79c-0.58,0.2 -1.3,0.36 -2.22,0.5c-0.92,0.14 -2.09,0.21 -3.5,0.21c-1.37,0 -2.51,-0.07 -3.42,-0.21c-0.91,-0.14 -1.64,-0.3 -2.17,-0.5c-0.53,-0.2 -0.91,-0.46 -1.12,-0.79c-0.19,-0.33 -0.29,-0.71 -0.29,-1.16v-98.55c0,-2.32 0.62,-3.97 1.84,-4.97c1.24,-0.99 2.61,-1.49 4.12,-1.49h8.76c1.78,0 3.35,0.17 4.7,0.5c1.35,0.33 2.53,0.86 3.54,1.57c1.01,0.71 1.84,1.63 2.53,2.73c0.66,1.11 1.26,2.4 1.76,3.89l30.64,77.6h0.41l31.88,-77.35c0.62,-1.66 1.28,-3.06 2.03,-4.22c0.72,-1.16 1.51,-2.08 2.38,-2.77c0.87,-0.69 1.84,-1.19 2.92,-1.49c1.06,-0.3 2.3,-0.46 3.69,-0.46h9.17c0.85,0 1.66,0.12 2.4,0.37c0.77,0.25 1.41,0.63 1.95,1.16c0.52,0.53 0.95,1.19 1.3,1.99c0.33,0.8 0.5,1.78 0.5,2.94z" fill="#ffffff"></path><path d="M927.4,2117.79c0,0.45 -0.1,0.82 -0.29,1.12c-0.19,0.3 -0.54,0.57 -1.04,0.79c-0.5,0.22 -1.14,0.38 -1.95,0.5c-0.81,0.11 -1.78,0.17 -2.94,0.17c-1.26,0 -2.3,-0.05 -3.11,-0.17c-0.81,-0.11 -1.43,-0.28 -1.9,-0.5c-0.48,-0.22 -0.79,-0.49 -0.95,-0.79c-0.17,-0.3 -0.25,-0.67 -0.25,-1.12v-9.85c-4.24,4.69 -8.45,8.12 -12.59,10.27c-4.14,2.15 -8.34,3.23 -12.59,3.23c-4.97,0 -9.15,-0.83 -12.55,-2.48c-3.4,-1.65 -6.15,-3.9 -8.24,-6.75c-2.09,-2.85 -3.6,-6.16 -4.51,-9.94c-0.91,-3.78 -1.37,-8.37 -1.37,-13.79v-45.22c0,-0.45 0.1,-0.82 0.29,-1.12c0.19,-0.3 0.56,-0.58 1.12,-0.83c0.56,-0.25 1.26,-0.41 2.15,-0.5c0.89,-0.08 1.99,-0.12 3.31,-0.12c1.32,0 2.42,0.04 3.31,0.12c0.89,0.08 1.59,0.25 2.11,0.5c0.52,0.25 0.89,0.53 1.12,0.83c0.23,0.3 0.33,0.67 0.33,1.12v43.39c0,4.36 0.31,7.86 0.95,10.48c0.64,2.62 1.59,4.85 2.9,6.71c1.3,1.85 2.94,3.28 4.93,4.31c1.99,1.02 4.31,1.53 6.96,1.53c3.42,0 6.83,-1.21 10.23,-3.64c3.4,-2.43 7,-5.99 10.81,-10.68v-52.09c0,-0.45 0.1,-0.82 0.29,-1.12c0.19,-0.3 0.56,-0.58 1.12,-0.83c0.56,-0.25 1.26,-0.41 2.11,-0.5c0.85,-0.09 1.97,-0.12 3.35,-0.12c1.33,0 2.42,0.04 3.31,0.12c0.89,0.08 1.57,0.25 2.07,0.5c0.5,0.25 0.87,0.53 1.12,0.83c0.25,0.3 0.37,0.67 0.37,1.12v74.52z" fill="#ffffff"></path><path d="M999.45,2097.5c0,3.81 -0.7,7.2 -2.11,10.19c-1.41,2.98 -3.42,5.5 -6,7.54c-2.59,2.04 -5.69,3.59 -9.28,4.64c-3.58,1.05 -7.54,1.57 -11.84,1.57c-2.65,0 -5.18,-0.21 -7.58,-0.62c-2.4,-0.41 -4.55,-0.94 -6.46,-1.57c-1.9,-0.63 -3.52,-1.29 -4.84,-1.99c-1.32,-0.7 -2.3,-1.31 -2.9,-1.86c-0.6,-0.55 -1.06,-1.32 -1.33,-2.32c-0.27,-0.99 -0.41,-2.35 -0.41,-4.06c0,-1.05 0.06,-1.94 0.17,-2.65c0.1,-0.71 0.25,-1.29 0.41,-1.74c0.17,-0.45 0.39,-0.76 0.7,-0.95c0.31,-0.2 0.64,-0.29 1.04,-0.29c0.6,0 1.51,0.37 2.69,1.12c1.18,0.75 2.65,1.56 4.39,2.44c1.74,0.88 3.79,1.7 6.17,2.44c2.38,0.74 5.11,1.12 8.2,1.12c2.32,0 4.41,-0.25 6.29,-0.75c1.88,-0.5 3.5,-1.23 4.89,-2.19c1.39,-0.96 2.44,-2.19 3.19,-3.69c0.75,-1.49 1.12,-3.26 1.12,-5.3c0,-2.1 -0.54,-3.86 -1.61,-5.3c-1.08,-1.44 -2.51,-2.7 -4.26,-3.81c-1.76,-1.11 -3.75,-2.08 -5.96,-2.94c-2.22,-0.86 -4.49,-1.75 -6.83,-2.69c-2.34,-0.94 -4.64,-2 -6.87,-3.19c-2.24,-1.19 -4.24,-2.64 -6,-4.35c-1.76,-1.71 -3.19,-3.76 -4.26,-6.13c-1.08,-2.37 -1.61,-5.22 -1.61,-8.53c0,-2.93 0.56,-5.72 1.7,-8.41c1.14,-2.69 2.84,-5.02 5.09,-7.04c2.26,-2.02 5.09,-3.63 8.49,-4.84c3.4,-1.21 7.35,-1.82 11.88,-1.82c1.99,0 3.97,0.17 5.96,0.5c1.99,0.33 3.79,0.75 5.38,1.24c1.59,0.5 2.96,1.04 4.1,1.61c1.14,0.58 1.99,1.09 2.57,1.53c0.58,0.45 0.97,0.83 1.16,1.16c0.19,0.33 0.33,0.7 0.41,1.12c0.08,0.41 0.17,0.92 0.25,1.53c0.08,0.61 0.12,1.36 0.12,2.24c0,0.94 -0.04,1.75 -0.12,2.44c-0.08,0.69 -0.23,1.25 -0.41,1.7c-0.18,0.45 -0.43,0.76 -0.7,0.95c-0.27,0.2 -0.58,0.29 -0.91,0.29c-0.5,0 -1.22,-0.3 -2.15,-0.91c-0.93,-0.61 -2.15,-1.25 -3.64,-1.95c-1.49,-0.69 -3.25,-1.34 -5.26,-1.95c-2.01,-0.61 -4.33,-0.91 -6.91,-0.91c-2.32,0 -4.37,0.26 -6.13,0.79c-1.76,0.53 -3.21,1.27 -4.35,2.24c-1.14,0.97 -1.99,2.11 -2.57,3.44c-0.58,1.32 -0.87,2.76 -0.87,4.31c0,2.15 0.56,3.96 1.66,5.42c1.1,1.46 2.55,2.74 4.31,3.85c1.76,1.11 3.79,2.1 6.05,2.98c2.26,0.88 4.58,1.79 6.91,2.73c2.34,0.94 4.66,1.99 6.96,3.15c2.3,1.16 4.33,2.57 6.09,4.22c1.76,1.65 3.19,3.64 4.26,5.96c1.02,2.32 1.56,5.09 1.56,8.29z" fill="#ffffff"></path><path d="M1034.23,2018.08c0,3.2 -0.6,5.38 -1.82,6.54c-1.22,1.16 -3.46,1.74 -6.71,1.74c-3.21,0 -5.4,-0.57 -6.58,-1.7c-1.18,-1.13 -1.78,-3.27 -1.78,-6.42c0,-3.2 0.6,-5.38 1.82,-6.54c1.22,-1.16 3.46,-1.74 6.71,-1.74c3.21,0 5.4,0.57 6.58,1.7c1.18,1.13 1.78,3.27 1.78,6.42zM1032.66,2117.79c0,0.45 -0.1,0.82 -0.33,1.12c-0.23,0.3 -0.58,0.57 -1.08,0.79c-0.5,0.22 -1.18,0.38 -2.07,0.5c-0.89,0.11 -2.01,0.17 -3.4,0.17c-1.33,0 -2.42,-0.05 -3.31,-0.17c-0.89,-0.11 -1.59,-0.28 -2.11,-0.5c-0.52,-0.22 -0.89,-0.49 -1.08,-0.79c-0.19,-0.3 -0.29,-0.67 -0.29,-1.12v-74.53c0,-0.38 0.1,-0.75 0.29,-1.08c0.19,-0.33 0.56,-0.61 1.08,-0.83c0.52,-0.22 1.22,-0.38 2.11,-0.5c0.89,-0.11 1.99,-0.17 3.31,-0.17c1.39,0 2.51,0.05 3.4,0.17c0.89,0.12 1.57,0.28 2.07,0.5c0.5,0.22 0.85,0.5 1.08,0.83c0.23,0.33 0.33,0.69 0.33,1.08z" fill="#ffffff"></path><path d="M1111.5,2106.44c0,0.94 -0.02,1.75 -0.08,2.44c-0.06,0.69 -0.15,1.27 -0.29,1.74c-0.14,0.47 -0.31,0.88 -0.5,1.24c-0.19,0.36 -0.64,0.88 -1.33,1.57c-0.69,0.69 -1.86,1.54 -3.52,2.57c-1.66,1.02 -3.52,1.94 -5.59,2.73c-2.07,0.79 -4.33,1.45 -6.75,1.95c-2.42,0.5 -4.95,0.75 -7.54,0.75c-5.36,0 -10.1,-0.88 -14.24,-2.65c-4.14,-1.77 -7.6,-4.35 -10.39,-7.74c-2.79,-3.39 -4.91,-7.57 -6.38,-12.5c-1.47,-4.94 -2.19,-10.64 -2.19,-17.1c0,-7.34 0.89,-13.65 2.69,-18.92c1.8,-5.27 4.24,-9.6 7.37,-12.96c3.13,-3.36 6.79,-5.87 11.01,-7.49c4.22,-1.63 8.8,-2.44 13.71,-2.44c2.38,0 4.68,0.22 6.91,0.66c2.24,0.45 4.29,1.02 6.17,1.74c1.88,0.72 3.54,1.54 5.01,2.48c1.47,0.94 2.53,1.74 3.19,2.4c0.66,0.66 1.12,1.19 1.37,1.57c0.25,0.38 0.46,0.84 0.62,1.37c0.17,0.53 0.27,1.12 0.33,1.78c0.06,0.66 0.08,1.49 0.08,2.48c0,2.15 -0.25,3.65 -0.75,4.51c-0.5,0.86 -1.1,1.28 -1.82,1.28c-0.83,0 -1.78,-0.46 -2.86,-1.37c-1.08,-0.91 -2.44,-1.92 -4.1,-3.02c-1.66,-1.1 -3.66,-2.11 -6,-3.02c-2.34,-0.91 -5.11,-1.37 -8.32,-1.37c-6.56,0 -11.61,2.53 -15.11,7.58c-3.5,5.05 -5.26,12.38 -5.26,21.99c0,4.8 0.46,9.02 1.37,12.63c0.91,3.61 2.26,6.64 4.02,9.07c1.76,2.43 3.93,4.23 6.5,5.42c2.57,1.19 5.51,1.78 8.82,1.78c3.15,0 5.9,-0.5 8.28,-1.49c2.38,-0.99 4.43,-2.08 6.17,-3.27c1.74,-1.19 3.21,-2.27 4.39,-3.23c1.18,-0.96 2.11,-1.45 2.77,-1.45c0.39,0 0.72,0.11 0.99,0.33c0.27,0.22 0.52,0.59 0.7,1.12c0.19,0.53 0.33,1.19 0.41,1.99c0.09,0.79 0.14,1.74 0.14,2.85z" fill="#ffffff"></path><path d="M1229.17,2113.98c0,0.99 -0.06,1.86 -0.17,2.61c-0.1,0.75 -0.31,1.37 -0.58,1.86c-0.27,0.5 -0.6,0.86 -0.95,1.08c-0.35,0.22 -0.77,0.33 -1.2,0.33h-51.43c-1.26,0 -2.46,-0.42 -3.6,-1.28c-1.14,-0.86 -1.7,-2.36 -1.7,-4.51v-95.57c0,-2.15 0.56,-3.65 1.7,-4.51c1.14,-0.86 2.34,-1.28 3.6,-1.28h50.85c0.43,0 0.85,0.11 1.2,0.33c0.35,0.22 0.64,0.58 0.87,1.08c0.23,0.5 0.39,1.12 0.54,1.86c0.14,0.75 0.21,1.67 0.21,2.77c0,0.99 -0.06,1.86 -0.21,2.61c-0.14,0.75 -0.31,1.36 -0.54,1.82c-0.23,0.47 -0.52,0.82 -0.87,1.04c-0.35,0.22 -0.77,0.33 -1.2,0.33h-41.9v33.62h35.94c0.43,0 0.85,0.12 1.2,0.37c0.35,0.25 0.66,0.59 0.91,1.04c0.25,0.45 0.43,1.05 0.54,1.82c0.11,0.77 0.17,1.69 0.17,2.73c0,0.99 -0.06,1.85 -0.17,2.57c-0.1,0.71 -0.29,1.29 -0.54,1.74c-0.25,0.45 -0.56,0.76 -0.91,0.95c-0.35,0.2 -0.77,0.29 -1.2,0.29h-35.94v38.34h42.48c0.43,0 0.85,0.11 1.2,0.33c0.35,0.22 0.68,0.57 0.95,1.04c0.27,0.47 0.48,1.08 0.58,1.82c0.11,0.74 0.17,1.66 0.17,2.77z" fill="#ffffff"></path><path d="M1312.15,2147.35c0,0.43 -0.12,0.83 -0.37,1.16c-0.25,0.33 -0.62,0.6 -1.12,0.83c-0.5,0.23 -1.18,0.39 -2.07,0.5c-0.89,0.11 -1.99,0.17 -3.31,0.17c-1.39,0 -2.51,-0.06 -3.35,-0.17c-0.85,-0.1 -1.55,-0.27 -2.11,-0.5c-0.56,-0.23 -0.93,-0.5 -1.12,-0.83c-0.19,-0.33 -0.29,-0.72 -0.29,-1.16v-38.18c-2.26,2.27 -4.41,4.18 -6.46,5.76c-2.05,1.57 -4.06,2.85 -6.05,3.81c-1.99,0.96 -4,1.66 -6,2.07c-2,0.41 -4.1,0.62 -6.25,0.62c-5.4,0 -10.02,-1.07 -13.83,-3.19c-3.81,-2.12 -6.91,-5 -9.32,-8.61c-2.4,-3.61 -4.16,-7.87 -5.26,-12.75c-1.1,-4.88 -1.66,-10.03 -1.66,-15.44c0,-6.41 0.68,-12.18 2.07,-17.35c1.39,-5.17 3.44,-9.56 6.17,-13.21c2.73,-3.65 6.11,-6.45 10.1,-8.41c3.99,-1.96 8.63,-2.94 13.87,-2.94c2.22,0 4.29,0.24 6.21,0.7c1.92,0.46 3.85,1.21 5.76,2.24c1.91,1.03 3.83,2.35 5.8,3.97c1.97,1.62 4.1,3.57 6.42,5.84v-9.03c0,-0.5 0.1,-0.9 0.33,-1.2c0.23,-0.3 0.58,-0.57 1.08,-0.79c0.5,-0.22 1.14,-0.37 1.9,-0.46c0.76,-0.09 1.74,-0.12 2.9,-0.12c1.1,0 2.05,0.04 2.82,0.12c0.77,0.08 1.39,0.24 1.86,0.46c0.47,0.22 0.81,0.49 0.99,0.79c0.19,0.3 0.29,0.7 0.29,1.2zM1298.4,2065.37c-3.71,-4.59 -7.27,-8.07 -10.72,-10.48c-3.46,-2.4 -7.06,-3.6 -10.81,-3.6c-3.48,0 -6.44,0.83 -8.86,2.48c-2.42,1.66 -4.41,3.84 -5.92,6.54c-1.51,2.7 -2.63,5.77 -3.31,9.19c-0.68,3.43 -1.04,6.9 -1.04,10.43c0,3.81 0.29,7.5 0.87,11.1c0.58,3.6 1.59,6.76 3.02,9.52c1.43,2.76 3.33,4.98 5.71,6.67c2.38,1.69 5.36,2.53 8.94,2.53c1.82,0 3.58,-0.25 5.26,-0.75c1.68,-0.5 3.42,-1.33 5.18,-2.48c1.76,-1.16 3.62,-2.66 5.55,-4.51c1.93,-1.85 3.97,-4.13 6.13,-6.83z" fill="#ffffff"></path><path d="M1401.26,2117.79c0,0.45 -0.1,0.82 -0.29,1.12c-0.19,0.3 -0.54,0.57 -1.04,0.79c-0.5,0.22 -1.14,0.38 -1.95,0.5c-0.81,0.11 -1.78,0.17 -2.94,0.17c-1.26,0 -2.3,-0.05 -3.11,-0.17c-0.81,-0.11 -1.43,-0.28 -1.9,-0.5c-0.48,-0.22 -0.79,-0.49 -0.95,-0.79c-0.17,-0.3 -0.25,-0.67 -0.25,-1.12v-9.85c-4.24,4.69 -8.45,8.12 -12.59,10.27c-4.14,2.15 -8.34,3.23 -12.59,3.23c-4.97,0 -9.15,-0.83 -12.55,-2.48c-3.4,-1.66 -6.15,-3.9 -8.24,-6.75c-2.09,-2.85 -3.6,-6.16 -4.51,-9.94c-0.91,-3.78 -1.37,-8.37 -1.37,-13.79v-45.22c0,-0.45 0.1,-0.82 0.29,-1.12c0.19,-0.3 0.56,-0.58 1.12,-0.83c0.56,-0.25 1.26,-0.41 2.15,-0.5c0.89,-0.09 1.99,-0.12 3.31,-0.12c1.32,0 2.42,0.04 3.31,0.12c0.89,0.08 1.59,0.25 2.11,0.5c0.52,0.25 0.89,0.53 1.12,0.83c0.23,0.3 0.33,0.67 0.33,1.12v43.39c0,4.36 0.31,7.86 0.95,10.48c0.64,2.62 1.59,4.85 2.9,6.71c1.3,1.85 2.94,3.28 4.93,4.31c1.99,1.02 4.31,1.53 6.96,1.53c3.42,0 6.83,-1.21 10.23,-3.64c3.4,-2.43 7,-5.99 10.81,-10.68v-52.09c0,-0.45 0.1,-0.82 0.29,-1.12c0.19,-0.3 0.56,-0.58 1.12,-0.83c0.56,-0.25 1.26,-0.41 2.11,-0.5c0.85,-0.08 1.97,-0.12 3.35,-0.12c1.32,0 2.42,0.04 3.31,0.12c0.89,0.08 1.57,0.25 2.07,0.5c0.5,0.25 0.87,0.53 1.12,0.83c0.25,0.3 0.37,0.67 0.37,1.12v74.52z" fill="#ffffff"></path><path d="M1482.66,2117.87c0,0.66 -0.23,1.16 -0.66,1.49c-0.43,0.33 -1.06,0.58 -1.82,0.75c-0.77,0.17 -1.9,0.25 -3.4,0.25c-1.43,0 -2.59,-0.08 -3.44,-0.25c-0.85,-0.17 -1.47,-0.41 -1.86,-0.75c-0.39,-0.34 -0.58,-0.83 -0.58,-1.49v-7.45c-3.25,3.48 -6.89,6.18 -10.89,8.12c-4,1.94 -8.24,2.9 -12.71,2.9c-3.91,0 -7.47,-0.51 -10.64,-1.53c-3.17,-1.02 -5.88,-2.49 -8.12,-4.43c-2.24,-1.94 -3.97,-4.31 -5.22,-7.12c-1.25,-2.81 -1.86,-6.01 -1.86,-9.61c0,-4.19 0.85,-7.84 2.57,-10.93c1.72,-3.09 4.16,-5.66 7.37,-7.7c3.21,-2.04 7.12,-3.57 11.76,-4.6c4.64,-1.02 9.85,-1.53 15.65,-1.53h10.27v-5.8c0,-2.87 -0.31,-5.41 -0.91,-7.62c-0.6,-2.2 -1.59,-4.05 -2.94,-5.51c-1.35,-1.46 -3.11,-2.57 -5.26,-3.31c-2.15,-0.75 -4.8,-1.12 -7.95,-1.12c-3.37,0 -6.4,0.4 -9.07,1.2c-2.67,0.8 -5.03,1.69 -7.04,2.65c-2.01,0.96 -3.71,1.85 -5.05,2.65c-1.35,0.8 -2.36,1.2 -3.02,1.2c-0.43,0 -0.83,-0.11 -1.16,-0.33c-0.33,-0.22 -0.62,-0.55 -0.87,-0.99c-0.25,-0.44 -0.43,-1 -0.54,-1.7c-0.11,-0.7 -0.17,-1.45 -0.17,-2.28c0,-1.38 0.1,-2.47 0.29,-3.27c0.19,-0.8 0.66,-1.56 1.41,-2.28c0.75,-0.71 2.03,-1.56 3.85,-2.53c1.82,-0.97 3.91,-1.85 6.29,-2.65c2.38,-0.8 4.97,-1.46 7.78,-1.99c2.82,-0.53 5.65,-0.79 8.53,-0.79c5.36,0 9.92,0.61 13.66,1.82c3.75,1.21 6.79,2.99 9.11,5.34c2.32,2.35 4,5.26 5.05,8.74c1.06,3.48 1.57,7.54 1.57,12.17v50.28zM1469.08,2083.83h-11.68c-3.75,0 -7.02,0.32 -9.77,0.95c-2.75,0.63 -5.05,1.57 -6.87,2.82c-1.82,1.25 -3.17,2.73 -4.02,4.47c-0.85,1.74 -1.28,3.74 -1.28,6c0,3.86 1.22,6.95 3.69,9.23c2.46,2.29 5.9,3.44 10.31,3.44c3.58,0 6.91,-0.91 9.98,-2.73c3.06,-1.82 6.27,-4.61 9.65,-8.36v-15.82z" fill="#ffffff"></path><path d="M1521.42,2117.79c0,0.45 -0.1,0.82 -0.33,1.12c-0.23,0.3 -0.58,0.57 -1.08,0.79c-0.5,0.22 -1.18,0.38 -2.07,0.5c-0.89,0.11 -2.01,0.17 -3.4,0.17c-1.33,0 -2.42,-0.05 -3.31,-0.17c-0.89,-0.11 -1.59,-0.28 -2.11,-0.5c-0.52,-0.22 -0.89,-0.49 -1.08,-0.79c-0.19,-0.3 -0.29,-0.67 -0.29,-1.12v-110.64c0,-0.45 0.1,-0.83 0.29,-1.16c0.19,-0.33 0.56,-0.61 1.08,-0.83c0.52,-0.22 1.22,-0.38 2.11,-0.5c0.89,-0.11 1.99,-0.17 3.31,-0.17c1.39,0 2.51,0.05 3.4,0.17c0.89,0.12 1.57,0.28 2.07,0.5c0.5,0.22 0.85,0.5 1.08,0.83c0.23,0.33 0.33,0.71 0.33,1.16z" fill="#ffffff"></path><path d="M1561.91,2018.08c0,3.2 -0.6,5.38 -1.82,6.54c-1.22,1.16 -3.46,1.74 -6.71,1.74c-3.21,0 -5.4,-0.57 -6.58,-1.7c-1.18,-1.13 -1.78,-3.27 -1.78,-6.42c0,-3.2 0.6,-5.38 1.82,-6.54c1.22,-1.16 3.46,-1.74 6.71,-1.74c3.21,0 5.4,0.57 6.58,1.7c1.18,1.13 1.78,3.27 1.78,6.42zM1560.34,2117.79c0,0.45 -0.1,0.82 -0.33,1.12c-0.23,0.3 -0.58,0.57 -1.08,0.79c-0.5,0.22 -1.18,0.38 -2.07,0.5c-0.89,0.11 -2.01,0.17 -3.4,0.17c-1.32,0 -2.42,-0.05 -3.31,-0.17c-0.89,-0.11 -1.59,-0.28 -2.11,-0.5c-0.52,-0.22 -0.89,-0.49 -1.08,-0.79c-0.19,-0.3 -0.29,-0.67 -0.29,-1.12v-74.53c0,-0.38 0.1,-0.75 0.29,-1.08c0.19,-0.33 0.56,-0.61 1.08,-0.83c0.52,-0.22 1.22,-0.38 2.11,-0.5c0.89,-0.12 1.99,-0.17 3.31,-0.17c1.39,0 2.51,0.05 3.4,0.17c0.89,0.12 1.57,0.28 2.07,0.5c0.5,0.22 0.85,0.5 1.08,0.83c0.23,0.33 0.33,0.69 0.33,1.08z" fill="#ffffff"></path><path d="M1632.39,2097.5c0,3.81 -0.7,7.2 -2.11,10.19c-1.41,2.98 -3.42,5.5 -6,7.54c-2.58,2.04 -5.69,3.59 -9.28,4.64c-3.58,1.05 -7.54,1.57 -11.84,1.57c-2.65,0 -5.18,-0.21 -7.58,-0.62c-2.4,-0.41 -4.55,-0.94 -6.46,-1.57c-1.91,-0.63 -3.52,-1.29 -4.84,-1.99c-1.33,-0.69 -2.3,-1.31 -2.9,-1.86c-0.6,-0.55 -1.06,-1.32 -1.33,-2.32c-0.27,-0.99 -0.41,-2.35 -0.41,-4.06c0,-1.05 0.06,-1.94 0.17,-2.65c0.1,-0.71 0.25,-1.29 0.41,-1.74c0.16,-0.45 0.39,-0.76 0.7,-0.95c0.31,-0.2 0.64,-0.29 1.04,-0.29c0.6,0 1.51,0.37 2.69,1.12c1.18,0.75 2.65,1.56 4.39,2.44c1.74,0.88 3.79,1.7 6.17,2.44c2.38,0.75 5.11,1.12 8.2,1.12c2.32,0 4.41,-0.25 6.29,-0.75c1.88,-0.5 3.5,-1.23 4.89,-2.19c1.39,-0.96 2.44,-2.19 3.19,-3.69c0.75,-1.49 1.12,-3.26 1.12,-5.3c0,-2.1 -0.54,-3.86 -1.61,-5.3c-1.08,-1.44 -2.51,-2.7 -4.26,-3.81c-1.76,-1.11 -3.75,-2.08 -5.96,-2.94c-2.21,-0.86 -4.49,-1.75 -6.83,-2.69c-2.34,-0.94 -4.64,-2 -6.87,-3.19c-2.24,-1.19 -4.24,-2.64 -6,-4.35c-1.76,-1.71 -3.19,-3.76 -4.26,-6.13c-1.08,-2.37 -1.61,-5.22 -1.61,-8.53c0,-2.93 0.56,-5.72 1.7,-8.41c1.14,-2.69 2.84,-5.02 5.09,-7.04c2.26,-2.02 5.09,-3.63 8.49,-4.84c3.4,-1.21 7.35,-1.82 11.88,-1.82c1.99,0 3.97,0.17 5.96,0.5c1.99,0.33 3.79,0.75 5.38,1.24c1.59,0.5 2.96,1.04 4.1,1.61c1.14,0.57 1.99,1.09 2.57,1.53c0.58,0.45 0.97,0.83 1.16,1.16c0.19,0.33 0.33,0.7 0.41,1.12c0.08,0.41 0.17,0.92 0.25,1.53c0.08,0.61 0.12,1.36 0.12,2.24c0,0.94 -0.04,1.75 -0.12,2.44c-0.08,0.69 -0.23,1.25 -0.41,1.7c-0.19,0.45 -0.43,0.76 -0.7,0.95c-0.27,0.2 -0.58,0.29 -0.91,0.29c-0.5,0 -1.22,-0.3 -2.15,-0.91c-0.93,-0.61 -2.15,-1.25 -3.64,-1.95c-1.49,-0.69 -3.25,-1.34 -5.26,-1.95c-2.01,-0.61 -4.33,-0.91 -6.91,-0.91c-2.32,0 -4.37,0.26 -6.13,0.79c-1.76,0.53 -3.21,1.27 -4.35,2.24c-1.14,0.97 -1.99,2.11 -2.57,3.44c-0.58,1.32 -0.87,2.76 -0.87,4.31c0,2.15 0.56,3.96 1.66,5.42c1.1,1.46 2.55,2.74 4.31,3.85c1.76,1.11 3.79,2.1 6.05,2.98c2.26,0.88 4.58,1.79 6.91,2.73c2.34,0.94 4.66,1.99 6.96,3.15c2.3,1.16 4.33,2.57 6.09,4.22c1.76,1.65 3.19,3.64 4.26,5.96c1.02,2.32 1.56,5.09 1.56,8.29z" fill="#ffffff"></path><path d="M1715.53,2077.29c0,2.15 -0.54,3.69 -1.61,4.6c-1.1,0.91 -2.32,1.37 -3.71,1.37h-49.09c0,4.14 0.41,7.87 1.24,11.18c0.83,3.31 2.22,6.16 4.16,8.53c1.95,2.37 4.47,4.19 7.58,5.47c3.11,1.27 6.91,1.9 11.41,1.9c3.54,0 6.71,-0.29 9.48,-0.87c2.77,-0.58 5.18,-1.23 7.2,-1.95c2.01,-0.71 3.69,-1.37 4.99,-1.95c1.3,-0.58 2.28,-0.87 2.96,-0.87c0.37,0 0.72,0.09 1.04,0.29c0.29,0.2 0.54,0.49 0.7,0.87c0.16,0.38 0.29,0.92 0.37,1.61c0.08,0.69 0.12,1.53 0.12,2.53c0,0.71 -0.02,1.34 -0.08,1.86c-0.06,0.53 -0.12,0.99 -0.21,1.41c-0.08,0.41 -0.23,0.79 -0.41,1.12c-0.19,0.33 -0.43,0.65 -0.75,0.95c-0.31,0.3 -1.2,0.8 -2.69,1.49c-1.49,0.69 -3.42,1.37 -5.8,2.03c-2.38,0.66 -5.11,1.25 -8.24,1.78c-3.13,0.53 -6.44,0.79 -9.98,0.79c-6.13,0 -11.49,-0.86 -16.11,-2.57c-4.62,-1.71 -8.49,-4.25 -11.64,-7.62c-3.15,-3.36 -5.53,-7.59 -7.12,-12.67c-1.59,-5.08 -2.4,-10.98 -2.4,-17.72c0,-6.41 0.83,-12.16 2.48,-17.27c1.65,-5.11 4.04,-9.44 7.16,-13c3.13,-3.56 6.89,-6.29 11.3,-8.2c4.41,-1.9 9.36,-2.86 14.82,-2.86c5.86,0 10.83,0.94 14.95,2.82c4.12,1.87 7.49,4.4 10.14,7.58c2.65,3.18 4.6,6.9 5.84,11.18c1.24,4.28 1.86,8.85 1.86,13.71v2.48zM1701.78,2073.23c0.17,-7.17 -1.43,-12.8 -4.78,-16.89c-3.37,-4.09 -8.36,-6.13 -14.97,-6.13c-3.4,0 -6.36,0.63 -8.9,1.9c-2.57,1.27 -4.7,2.95 -6.42,5.05c-1.74,2.1 -3.06,4.54 -4.02,7.33c-0.93,2.78 -1.47,5.7 -1.57,8.74z" fill="#ffffff"></path><path d="M1779.88,2048.14c0,1.21 -0.02,2.24 -0.08,3.06c-0.06,0.82 -0.17,1.48 -0.33,1.95c-0.16,0.47 -0.37,0.83 -0.62,1.08c-0.25,0.25 -0.6,0.37 -1.04,0.37c-0.43,0 -0.97,-0.12 -1.61,-0.37c-0.64,-0.25 -1.35,-0.5 -2.15,-0.75c-0.81,-0.25 -1.7,-0.49 -2.69,-0.7c-0.99,-0.22 -2.07,-0.33 -3.23,-0.33c-1.39,0 -2.73,0.28 -4.06,0.83c-1.33,0.55 -2.71,1.46 -4.18,2.73c-1.47,1.27 -3,2.95 -4.6,5.05c-1.59,2.1 -3.37,4.67 -5.3,7.7v49.03c0,0.45 -0.1,0.82 -0.33,1.12c-0.23,0.3 -0.58,0.57 -1.08,0.79c-0.5,0.22 -1.18,0.38 -2.07,0.5c-0.89,0.11 -2.01,0.17 -3.4,0.17c-1.32,0 -2.42,-0.05 -3.31,-0.17c-0.89,-0.11 -1.59,-0.28 -2.11,-0.5c-0.52,-0.22 -0.89,-0.49 -1.08,-0.79c-0.19,-0.3 -0.29,-0.67 -0.29,-1.12v-74.53c0,-0.45 0.08,-0.82 0.25,-1.12c0.17,-0.3 0.5,-0.58 0.99,-0.83c0.5,-0.25 1.14,-0.41 1.9,-0.5c0.77,-0.08 1.8,-0.12 3.06,-0.12c1.22,0 2.22,0.04 3.02,0.12c0.8,0.08 1.43,0.25 1.86,0.5c0.43,0.25 0.77,0.53 0.95,0.83c0.19,0.3 0.29,0.67 0.29,1.12v10.85c2.05,-2.98 3.95,-5.41 5.76,-7.29c1.8,-1.87 3.5,-3.35 5.09,-4.43c1.59,-1.08 3.19,-1.82 4.76,-2.24c1.57,-0.41 3.17,-0.62 4.76,-0.62c0.72,0 1.53,0.04 2.44,0.12c0.91,0.08 1.86,0.24 2.86,0.46c0.99,0.22 1.88,0.47 2.69,0.75c0.81,0.28 1.37,0.55 1.7,0.83c0.33,0.28 0.56,0.54 0.66,0.79c0.1,0.25 0.21,0.57 0.29,0.95c0.08,0.38 0.14,0.95 0.17,1.7c0.04,0.73 0.06,1.74 0.06,3.01z" fill="#ffffff"></path><g><path d="M1928.4,548.33v960.15c0,109.53 -88.79,198.33 -198.33,198.33h-960.14c-109.53,0 -198.33,-88.79 -198.33,-198.33v-960.15c0,-109.54 88.79,-198.33 198.33,-198.33h960.15c109.53,0 198.32,88.79 198.32,198.33z" fill="#339af0"></path><path d="M790.39,1566.88c-43.55,0 -78.86,-35.31 -78.86,-78.86v-919.23c0,-43.55 35.31,-78.86 78.86,-78.86h919.22c43.55,0 78.86,35.31 78.86,78.86v919.23c0,43.55 -35.31,78.86 -78.86,78.86z" fill="#339af0"></path><path d="M984.05,669.88v717.04c0,33.82 -27.41,61.23 -61.23,61.23v0c-33.82,0 -61.23,-27.41 -61.23,-61.23v-717.04c0,-33.82 27.41,-61.23 61.23,-61.23v0c33.82,0 61.23,27.41 61.23,61.23z" fill="#000000"></path><path d="M1048.55,873.13c0,69.51 -56.21,125.73 -125.73,125.73c-69.33,0 -125.73,-56.21 -125.73,-125.73c0,-69.52 56.4,-125.73 125.73,-125.73c69.51,0.01 125.73,56.22 125.73,125.73z" fill="#ffffff"></path><path d="M1188.76,1386.92v-717.04c0,-33.82 27.41,-61.23 61.23,-61.23v0c33.82,0 61.23,27.41 61.23,61.23v717.04c0,33.82 -27.41,61.23 -61.23,61.23v0c-33.81,0 -61.23,-27.41 -61.23,-61.23z" fill="#000000"></path><path d="M1124.27,1183.67c0,-69.51 56.21,-125.73 125.73,-125.73c69.33,0 125.73,56.21 125.73,125.73c0,69.51 -56.4,125.73 -125.73,125.73c-69.52,0 -125.73,-56.22 -125.73,-125.73z" fill="#ffffff"></path><g><path d="M1638.43,669.88v717.04c0,33.82 -27.41,61.23 -61.23,61.23v0c-33.82,0 -61.23,-27.41 -61.23,-61.23v-717.04c0,-33.82 27.41,-61.23 61.23,-61.23v0c33.81,0 61.23,27.41 61.23,61.23z" fill="#000000"></path><path d="M1702.92,873.13c0,69.51 -56.21,125.73 -125.73,125.73c-69.33,0 -125.73,-56.21 -125.73,-125.73c0,-69.52 56.4,-125.73 125.73,-125.73c69.52,0.01 125.73,56.22 125.73,125.73z" fill="#ffffff"></path></g></g></g></g></g></svg>