<svg xmlns="http://www.w3.org/2000/svg" viewBox="0 0 3000 3000" width="3000" height="3000"><g transform="translate(229.41176470588235 668.8235294117646) rotate(0.0 1284.705882352941 1119.705882352941) scale(1.761620626448104 1.7612181430358023)"><svg width="1458.55" height="1271.513" viewBox="0 0 1458.55 1271.513"><path d="M1251.819 977.745c-46.584 92.545-279.615 99.838-416.935 70.441-55.177 6.332-254.401-112.671-155.919-165.361 113.632-67.557 337.957-80.786 488.902-14.755 38.612 36.803 89.888 61.169 83.952 109.675z" fill="#172635"/><path d="M611.011 959.993c-18.656 2.148-33.016 80.504-30.302 89.38 6.671 21.709 62.978 50.597 67.501 46.018 4.692-4.805 14.359-18.713 14.359-18.713l49.184 33.524-.283 24.422c-.17 14.246 60.321 58.173 137.546 71.741 69.48 12.211 109.166-11.363 124.487-23.687 4.862-3.901 8.197-9.385 9.498-15.49 3.053-14.529 7.01-43.192-6.162-52.407-17.864-12.663-347.172-156.936-365.828-154.788z" fill="#9de9ff"/><path d="M711.754 1111.164a.954.954 0 0 1-.565-.17l-48.336-32.959c-2.148 3.053-9.78 13.851-13.907 18.034a.989.989 0 0 1-1.413 0 .989.989 0 0 1 0-1.413c4.579-4.692 14.133-18.43 14.246-18.599.339-.452.904-.565 1.357-.283l49.184 33.524c.452.283.565.905.283 1.357-.227.339-.51.509-.849.509zm-32.789-228.339s-56.646 21.483-71.967 91.98c6.897 29.906 55.12 56.986 103.061 94.411 17.243 13.455 35.277 34.768 60.773 47.827 126.239 64.844 205.386 11.081 205.386 11.081 4.523-52.689-12.098-79.034-72.476-87.005z" fill="#172635"/><path d="M852.353 1145.479c40.082 15.151 112.219 4.353 123.865-17.356-15.208.678-12.324-2.374-33.977-.396-23.461 2.206-71.288 22.501-89.888 17.752z" fill="#9de9ff"/><path d="M892.379 1162.591c-34.227 0-69.647-7.998-105.274-23.773a1 1 0 0 1 .809-1.828c35.371 15.661 70.518 23.602 104.465 23.602 51.742 0 86.547-19.271 92.717-25.912a1 1 0 0 1 1.465 1.361c-6.323 6.804-41.783 26.55-94.182 26.55z" fill="#172635"/><path d="M1254.702 952.587c-6.219-75.246-134.832-170.449-291.034-219.406-229.526-71.911-293.578-30.528-309.012 31.885-25.327 102.382 28.436 164.286 155.637 202.333 34.033 10.176 69.706 19.108 109.562 25.214 9.045 52.859 30.98 105.661 69.649 121.434 0 0 215.732-24.818 262.315-136.359 3.957-9.441 4.749-17.808 2.883-25.101z" fill="#fff"/><path d="M989.503 1115.046c-.129 0-.258-.025-.378-.074-47.51-19.378-64.815-90.838-70.135-121.48-35.105-5.413-69.759-13.406-108.985-25.135-65.435-19.572-109.762-44.883-135.513-77.378-26.674-33.659-33.48-74.925-20.808-126.153 6.229-25.19 19.325-43.099 40.038-54.749 48.034-27.019 136.432-19.773 270.244 22.149 76.102 23.853 147.863 59.366 202.062 100 54.77 41.061 86.609 83.741 89.663 120.195 1.948 7.704.956 16.334-2.951 25.653-10.702 25.624-31.226 48.774-61.003 68.806-23.763 15.985-53.447 30.036-88.226 41.763-59.172 19.949-113.354 26.335-113.894 26.396a.872.872 0 0 1-.114.007zM769.566 696.222c-31.303 0-56.424 5.226-74.864 15.598-20.205 11.365-32.987 28.86-39.077 53.486-12.514 50.587-5.83 91.289 20.434 124.431 25.488 32.163 69.49 57.253 134.519 76.704 39.4 11.78 74.172 19.782 109.427 25.184a.999.999 0 0 1 .834.819c10.791 63.057 35.859 106.981 68.803 120.579 4.095-.497 56.365-7.099 113.263-26.287 34.603-11.669 64.12-25.64 87.73-41.525 29.438-19.807 49.713-42.654 60.26-67.908 3.749-8.942 4.703-17.174 2.837-24.467a1.028 1.028 0 0 1-.028-.166c-2.967-35.894-34.53-78.1-88.877-118.844-54.022-40.5-125.569-75.905-201.46-99.691-70.088-21.958-128.841-34.51-174.629-37.306a314.521 314.521 0 0 0-19.172-.607z" fill="#172635"/><path d="m991.934 593.091 33.75 2.092-28.832 43.87zM267.457 779.595c-31.659-5.484-62.583-29.737-75.02-56.138-16.508-34.994-15.716-86.383.283-87.57 18.26-1.357 46.81 34.146 40.365 71.515 18.317.622 38.612 14.868 48.506 33.016.056-.058 7.406 42.908-14.134 39.177z" fill="#fff"/><path d="M227.036 779.764c-31.376-1.979-64.166-21.03-79.147-49.976-18.204-35.22-23.348-94.467-5.766-96.898 20.126-2.77 55.686 37.934 45.283 76.49 20.182 0 33.185 5.71 52.633 26.345.113 0 11.137 45.566-13.003 44.039z" fill="#fff"/><path d="M188.197 797.742c-29.737-3.053-61.678-15.264-76.659-39.008-25.101-39.686-30.811-94.072-14.077-97.52 19.108-3.901 58.569 32.733 51.05 70.384 22.161-4.975 45.17 4.918 57.608 23.405.056 0 5.201 45.057-17.922 42.739z" fill="#fff"/><path d="M189.897 798.829c-.587 0-1.186-.03-1.799-.092h-.002c-35.151-3.608-64.087-18.363-77.403-39.47-9.585-15.154-17.025-33.519-20.948-51.708-3.682-17.068-3.758-31.646-.21-39.997 1.772-4.172 4.372-6.637 7.726-7.328 8.497-1.735 21.038 4.166 31.95 15.033 12.449 12.396 24.213 33.236 20.554 55.047 21.719-4.239 44.538 5.333 57.185 24.13a.977.977 0 0 1 .053.088c.385.722 2.977 25.558-5.123 37.65-2.96 4.416-6.985 6.647-11.983 6.647zm-1.599-2.082c4.219.422 7.583-.763 10.288-3.621 3.903-4.125 6.29-11.851 6.903-22.342.453-7.764-.201-14.257-.331-15.418-12.504-18.412-35.148-27.567-56.427-22.792a.996.996 0 0 1-.918-.26 1.003 1.003 0 0 1-.282-.912c4.307-21.567-7.369-42.407-19.732-54.718-10.451-10.406-22.281-16.091-30.137-14.491-2.67.551-4.786 2.62-6.287 6.151-6.795 15.992.746 57.817 21.009 89.855 12.992 20.591 41.372 35.001 75.916 38.547h-.002z" fill="#172635"/><path d="M259.203 665.171c8.819-7.01 43.192 1.583 89.719 53.141 32.62 36.125 41.213 69.706 16.508 77.677-42.344 13.681-62.809-21.709-70.441-60.208-29.454-19.108-49.354-59.812-35.786-70.61z" fill="#fff"/><ellipse cx="1305.962" cy="848.348" fill="#172635" rx="133.81" ry="50.2" transform="matrix(.011 -.9999 .9999 .011 443.2898 2144.8921)"/><path d="M1314.854 518.862c2.488-9.498 47.205-58.738 50.089-75.529 22.839-10.12 41.835-26.514 51.672-45.001 19.052-35.673 20.465-73.098 7.18-76.716-11.42-3.109-30.415 10.798-41.156 32.563 7.858-31.32 7.519-59.021-4.579-60.773-19.334-2.77-56.986 40.421-47.262 77.564-13.738 5.993-26.062 13.172-36.577 28.549-29.737-1.526-59.812 4.41-72.08 8.367-2.035.678-4.127 1.413-6.275 2.318.17-19.165-5.427-36.521-16.734-41.552-10.346-4.579-56.025 35.277-59.021 104.643-2.092 47.827 22.613 83.217 52.859 85.931 8.48.735 14.925-.565 19.561-3.562.17.057.226.057.226.057 16.904 17.356 24.027 85.931 37.764 148.909-4.749-1.357-9.271-2.94-13.568-4.862-16.791-7.406-36.295-19.787-60.321-40.704-58.569-51.163-115.046-35.39-152.867-9.215-54.272 37.538-60.208 63.996-60.208 63.996.848 8.141 37.086 43.418 95.372 61 11.024 3.335 66.823 21.087 104.417 40.365 34.599 17.751 51.106 46.301 114.367 84.631 58.399 35.39 126.465 29.002 158.463-22.444 89.039-133.475-129.407-294.426-121.322-358.535z" fill="#fff"/><path d="M1158.142 482.833a1 1 0 0 1-.762-1.646c10.789-12.726 25.489-24.012 28.658-26.389-1.592-17.182 4.941-31.275 18.917-40.784a1.001 1.001 0 0 1 1.125 1.655c-13.484 9.174-19.708 22.83-17.998 39.492a1 1 0 0 1-.4.906c-1.754 1.298-17.46 13.064-28.777 26.413a1 1 0 0 1-.763.353z" fill="#172635"/><path d="M1352.463 923.082c-24.863 0-51.094-7.734-75.27-22.385-34.067-20.642-54.923-38.729-71.68-53.261-14.932-12.95-26.726-23.179-42.625-31.336-41.184-21.118-103.624-40.107-104.25-40.297-32.051-9.668-55.499-23.93-69.526-34.19-16.821-12.305-26.089-23.23-26.551-27.663a.996.996 0 0 1 .019-.322c.246-1.096 6.642-27.269 60.615-64.6 29.895-20.689 89.666-46.996 154.093 9.284 22.009 19.161 41.657 32.423 60.067 40.542 3.615 1.618 7.498 3.044 11.83 4.345-3.765-17.429-7.014-35.127-10.159-52.262-8.01-43.635-14.94-81.392-26.554-94.059-4.894 2.923-11.477 4.051-19.59 3.345-15.302-1.373-29.262-10.786-39.312-26.505-10.323-16.147-15.459-37.621-14.459-60.466 2.35-54.406 30.558-91.133 48.944-102.545 4.953-3.074 8.923-4.1 11.48-2.969 10.623 4.727 17.204 20.357 17.331 40.978a97.663 97.663 0 0 1 4.957-1.778c12.967-4.183 42.721-9.852 71.889-8.444 10.065-14.518 21.669-21.811 35.908-28.1-5.623-23.159 6.787-47.554 19.252-61.523 10.08-11.297 21.319-17.593 29.328-16.454 2.648.384 4.856 1.871 6.566 4.422 5.428 8.097 5.548 27.101.492 50.519 10.922-17.86 27.66-29.737 38.798-26.705 3.036.827 5.406 3.171 7.043 6.968 6.218 14.418.369 45.021-13.604 71.184-9.816 18.448-28.63 34.912-51.67 45.231-2.189 10.342-17.835 30.729-31.667 48.753-8.885 11.578-17.28 22.517-18.322 26.267-2.732 22.155 22.687 57.017 52.115 97.375 27.835 38.175 59.385 81.443 77.001 126.371 20.479 52.229 17.88 96.438-7.946 135.152-15.373 24.717-40.251 40.432-70.037 44.222-4.764.605-9.609.906-14.506.906zM964.572 713.908c.589 3.503 8.815 13.725 25.72 26.091 13.901 10.169 37.143 24.304 68.924 33.891.628.189 63.242 19.232 104.585 40.432 16.114 8.268 28.584 19.082 43.023 31.604 16.701 14.483 37.485 32.509 71.406 53.062 28.552 17.303 59.978 24.831 88.488 21.205 29.177-3.714 53.542-19.099 68.608-43.321 25.453-38.156 27.988-81.764 7.765-133.339-17.522-44.688-48.99-87.846-76.755-125.923-29.709-40.744-55.367-75.933-52.474-98.871.006-.043.014-.086.025-.128 1.069-4.083 8.844-14.213 18.686-27.039 13.242-17.255 29.723-38.73 31.385-48.405.057-.33.275-.609.581-.745 22.856-10.128 41.515-26.368 51.194-44.557 15.626-29.259 18.635-57.62 13.532-69.451-1.385-3.21-3.313-5.171-5.732-5.83-12.565-3.424-31.163 14.141-39.997 32.041a1 1 0 0 1-1.867-.686c6.447-25.695 7.011-47.671 1.438-55.985-1.381-2.061-3.128-3.257-5.19-3.556-7.356-1.038-17.912 5.003-27.551 15.806-12.284 13.768-24.527 37.877-18.6 60.516a1 1 0 0 1-.567 1.17c-14.43 6.295-26.101 13.499-36.152 28.197a1.007 1.007 0 0 1-.877.435c-29.074-1.5-58.821 4.157-71.722 8.32-1.796.598-3.944 1.34-6.194 2.287a.998.998 0 0 1-1.388-.931c.182-20.55-6.003-36.118-16.14-40.629-1.842-.816-5.436.246-9.615 2.84-9.987 6.198-20.996 18.905-29.451 33.99-7.74 13.811-17.241 36.636-18.55 66.942-.981 22.438 4.043 43.498 14.146 59.301 9.709 15.187 23.134 24.274 37.803 25.591 7.991.695 14.36-.452 18.928-3.405a.996.996 0 0 1 .859-.108c.27 0 .438.114.626.308 12.3 12.629 19.354 51.056 27.522 95.551 3.241 17.658 6.593 35.917 10.503 53.843a.998.998 0 0 1-1.252 1.174c-5.081-1.453-9.562-3.059-13.702-4.911-18.592-8.2-38.406-21.566-60.57-40.863-63.407-55.389-122.224-29.504-151.641-9.146-51.04 35.299-59.135 60.974-59.76 63.232z" fill="#172635"/><path d="M646.062 1095.843c18.373.565 62.357-3.166 62.357-3.166l-81.634-47.658c-.057-.056 3.731 50.315 19.277 50.824z" fill="#88cd9a"/><path d="M1283.534 969.264c-68.123-69.875-170.901-130.31-228.169-154.054l5.484-183.621c25.214-13.794 53.99-13.229 84.687-4.918 0 0 47.488 41.948 81.804 63.035 6.671 4.07 13.738 7.519 20.861 10.402l2.205.848c4.523 21.652 10.006 43.644 17.073 64.109-.339 1.074-.622 2.148-.961 3.279-6.388 22.105-10.289 49.523-10.628 79.203-.623 53.821 10.74 100.235 27.644 121.717z" fill="#0275a4"/><path d="M1306.769 836.506a.996.996 0 0 1-.72-.307c-25.42-26.396-47.209-87.409-57.527-136.167a1 1 0 0 1 1.956-.415c10.259 48.479 31.865 109.083 57.01 135.194a1 1 0 0 1-.719 1.695z" fill="#172635"/><path d="M371.762 744.713c-35.899 0-58.795 19.561-75.19 38.273-22.161 25.214-26.401 102.721-22.5 113.802l6.897 19.561-1.47 47.262s-9.045 17.073-10.006 24.931-14.529 80.504 6.106 132.006c16.734 41.722 183.508 32.281 196.454 21.878 12.664-10.176 15.151-50.767 5.031-60.491-57.269-39.064-69.48-337.222-105.322-337.222z" fill="#9de9ff"/><path d="M387.848 1099.548c-26.251 0-58.375-1.377-75.379-7.283-38.18-13.248-32.373-72.757-29.253-104.727.555-5.689 1.035-10.602 1.163-14.184.224-6.295.295-15.203.377-25.519.225-28.212.564-70.846 4.604-107.239 3.251-29.312 13.358-54.019 29.228-71.449 14.088-15.474 32.444-24.787 51.687-26.223a1 1 0 1 1 .149 1.994c-31.835 2.376-71.646 28.917-79.075 95.898-4.028 36.292-4.354 77.18-4.591 107.034-.083 10.33-.154 19.252-.378 25.574-.13 3.644-.612 8.585-1.171 14.307-3.066 31.422-8.774 89.91 27.918 102.644 6.732 2.338 34.594 9.711 110.49 6.39a.994.994 0 0 1 1.043.955 1 1 0 0 1-.955 1.043c-7.122.313-20.484.785-35.857.785z" fill="#172635"/><path d="M477.027 828.948c-47.262-122.621-167.791-105.039-180.738 11.872-5.484 49.523-4.127 108.544-4.975 132.628-.848 24.027-16.677 91.924 26.74 107.018 36.916 12.777 158.972 1.583 158.972 1.583 4.41-31.263 3.618-50.145-22.387-68.801 9.271-39.969 9.78-91.415 8.31-146.704z" fill="#172635"/><path d="M332.584 1083.745c21.257 5.88 42.23 9.045 62.809 9.158 20.635.113 40.874-2.827 60.83-9.158-14.303.792-37.877-8.819-58.286-8.65-20.861.113-47.884 12.89-65.353 8.65z" fill="#9de9ff"/><path d="M683.544 1268.779c-88.588 16.903-272.209-149.588-369.842-303.811-21.878 23.066 97.973-258.584 149.87-157.05 116.968 99.499 207.195 182.49 269.947 334.791 2.205 53.311-5.596 108.262-49.975 126.07z" fill="#172635"/><path d="M474.087 1084.067c-.62 0-1.059-.276-1.335-.483a1.048 1.048 0 0 1-.107-.093c-1.03-1.03-111.136-113.23-137.96-146.901-17.607-22.071-18.365-42.984-10.138-51.455 6.462-6.655 17.637-5.134 29.894 4.07 19.258 14.433 95.79 81.896 139.695 120.825 1.94 1.72 3.049 2.703 3.159 2.798.604.601.804 1.369.593 2.107l-21.945 67.817c-.256.766-1.035 1.315-1.856 1.315zm-.001-2c.001 0 .001 0 0 0h.001-.001zm-.082-.046c.027.019.047.029.06.036l21.911-67.704c-.093-.103-1.21-1.093-3.166-2.827-43.883-38.909-120.367-106.331-139.568-120.722-11.375-8.54-21.565-10.14-27.259-4.276-7.739 7.969-6.014 28.406 10.267 48.814 26.526 33.299 134.787 143.672 137.755 146.679z" fill="#fff"/><path d="M800.964 890.626C778.69 651.207 666.019 636.565 614.912 639.335c-101.647 5.484-106.453 94.581-94.354 219.18-37.821 6.954-75.359 74.059-87.514 161.234-11.929 85.479 4.636 161.799 37.369 184.073a44.19 44.19 0 0 0 4.466 2.657c36.973 20.861 151.792 72.419 208.156 62.865 91.358-11.872 136.416-180.737 117.929-378.718z" fill="#fff"/><path d="M667.832 1271.512c-60.36 0-160.618-45.64-193.445-64.162a45.32 45.32 0 0 1-4.537-2.701c-33.667-22.91-49.562-100.729-37.797-185.039 5.852-41.967 18.014-81.402 34.246-111.041 15.879-28.994 34.728-47.008 53.176-50.86-8.416-87.183-7.594-152.646 23.472-188.785 16.2-18.845 39.722-28.85 71.911-30.586 40.754-2.216 75.931 9.593 104.557 35.075 45.105 40.154 72.877 113.204 82.544 217.121 9.153 98.022 2.828 190.191-17.81 259.527-10.437 35.062-24.154 63.181-40.772 83.572-17.465 21.432-37.724 33.78-60.214 36.702-4.729.803-9.867 1.177-15.331 1.177zm-43.443-631.436c-3.109 0-6.245.086-9.423.259-31.616 1.705-54.677 11.483-70.502 29.893-30.711 35.727-31.37 101.07-22.911 188.191a1 1 0 0 1-.814 1.08c-18.131 3.334-36.842 21.102-52.686 50.031-16.118 29.432-28.2 68.624-34.019 110.356-11.666 83.597 3.87 160.604 36.941 183.108a43.549 43.549 0 0 0 4.364 2.597c32.716 18.458 132.504 63.926 192.388 63.928 5.399.001 10.469-.369 15.141-1.161 22.005-2.86 41.829-14.966 58.959-35.987 16.45-20.187 30.045-48.071 40.405-82.88 20.567-69.098 26.865-160.997 17.736-258.771-9.619-103.396-37.169-176.006-81.883-215.812-25.987-23.136-57.475-34.832-93.696-34.832z" fill="#172635"/><path d="M566.464 1135.06h-.024c-6.18-.146-11.595-4.304-14.133-10.852-3.316-8.558-1.961-22.383 11.777-35.543.307-.957-1.244-5.671-3.2-11.617-7.671-23.317-28.048-85.257-41.264-218.435a1 1 0 0 1 .896-1.094 1.008 1.008 0 0 1 1.094.896c13.194 132.959 33.521 194.746 41.174 218.007 3.126 9.501 4.069 12.368 2.73 13.643-13.069 12.492-14.427 25.455-11.341 33.42 2.24 5.78 6.958 9.448 12.314 9.574a1.001 1.001 0 0 1-.023 2.001zm-2.331-46.441-.001.001.001-.001zm517.746-306.254s-146.818 44.322-234.953 51.219c-28.21.17-53.537-2.94-76.038-8.706-75.133-184.695-140.995-100.63-128.048-181.303 53.65-64.166 177.572-130.479 275.318-138.281 6.501-.509 167.509 255.984 167.509 255.984z" fill="#172635"/><path d="m945.351 724.135-134.324 168.64c-57.608-56.364-142.747-130.479-120.586-278.484 70.328-23.518 133.702-39.969 178.646-37.595 92.941-15.038 128.67 24.309 76.264 147.439zm65.748 18.6c-38.895 75.246-128.331 176.724-128.331 176.724 71.854-26.684 138.846-67.388 163.382-89.153 27.984-26.571 51.728-53.65 60.547-80.504 0 .056-56.703-82.313-95.598-7.067z" fill="#0275a4"/><path d="M1005.938 712.052c-5.926 0-11.779-1.089-17.283-3.27-19.282-7.639-38.704-31.249-29.98-72.65a1 1 0 0 1 1.957.413c-8.468 40.184 10.2 63.026 28.759 70.379 27.002 10.694 52.56-6.651 65.911-28.591a.999.999 0 1 1 1.708 1.039c-8.571 14.085-19.898 24.177-32.758 29.187-5.978 2.328-12.185 3.493-18.314 3.493z" fill="#fff"/><path d="M1047.676 626.106c-6.614 40.195-20.182 78.751-36.577 116.629 24.536-18.317 63.261-26.458 78.808-5.597l-15.49-135.398z" fill="#0275a4"/><path d="M1009.291 743.565a1 1 0 0 1-.601-1.799c18.057-13.544 42.347-20.872 60.444-18.224 7.392 1.063 13.532 3.704 18.291 7.861l-9.088-127.612a1 1 0 0 1 .927-1.068.993.993 0 0 1 1.069.926l9.271 130.196a.998.998 0 0 1-1.721.761c-4.663-4.882-11.068-7.938-19.036-9.085-17.607-2.573-41.298 4.6-58.957 17.844a.996.996 0 0 1-.599.2z" fill="#172635"/><path d="M1081.879 630.629c-23.292 9.554-38.047 28.267-48.393 53.424-24.649 26.345-69.762-.339-59.812-55.29 24.083-11.759 33.581-17.186 45.792-35.673zm148.909-174.293c27.475-16.677 38.839-44.209 50.428-71.006 15.038-34.768 18.656-85.818 2.714-87.57-18.204-1.979-52.124 39.8-41.778 74.342-15.321 8.367-33.694 29.85-38.895 52.859.056-.001 8.875 42.682 27.531 31.375z" fill="#fff"/><path d="M1203.313 425.978a1.014 1.014 0 0 1-1.018-1.018v-.226c2.035-8.932 6.162-18.317 12.042-27.08.283-.452.904-.565 1.357-.283.452.283.565.905.283 1.357-5.71 8.537-9.78 17.695-11.759 26.401-.057.509-.453.849-.905.849z" fill="#172635"/><path d="M1280.029 449.552c26.966-16.225 37.312-39.969 48.506-70.328 13.738-37.199 20.352-95.146 2.714-97.011-20.182-2.148-57.608 44.322-46.018 82.539-21.879 11.137-29.341 24.479-37.086 51.728-.058 0 11.193 45.566 31.884 33.072z" fill="#fff"/><path d="M1248.087 417.498a1.014 1.014 0 0 1-1.018-1.018c0-.113 0-.17.057-.283 7.519-26.514 14.699-40.421 36.86-51.954-4.466-15.66-1.244-34.655 8.932-52.35.283-.452.905-.622 1.357-.339s.622.905.339 1.357c-10.063 17.469-13.172 36.294-8.536 51.559.113.452-.057.961-.509 1.187-22.048 11.25-29.115 24.875-36.577 51.106-.057.452-.452.735-.905.735zm38.443-3.11a1.014 1.014 0 0 1-1.018-1.018c0-.17.057-.283.113-.396 11.363-24.027 25.271-34.146 44.04-42.457-3.731-15.434.226-33.75 10.911-50.484.283-.452.905-.622 1.357-.283.452.283.622.905.283 1.357-10.572 16.564-14.416 34.712-10.459 49.749.113.452-.113.961-.565 1.187-18.713 8.197-32.563 18.034-43.813 41.835-.114.284-.509.51-.849.51z" fill="#172635"/><path d="M1310.5 419.759 180.283 745.618c-44.153 12.72-90.228-12.72-102.948-56.816L3.276 432.083c-12.72-44.096 12.72-90.227 56.873-102.947L1190.367 3.277c44.153-12.72 90.227 12.72 102.947 56.816l74.059 256.719c12.72 44.152-12.72 90.227-56.873 102.947z" fill="#9de9ff"/><path d="m1336.562 415.915-5.597 1.131c8.876-19.334 18.939-36.973 44.605-39.969-3.957 19.616-19.334 34.88-39.008 38.838zm-481.1 214.035c-11.702.113-28.267-10.572-70.893-4.523-20.635 2.94-48.845 18.147-97.746 31.546-67.218 18.486-186.674 7.18-198.263-50.88-11.081-55.346 39.065-115.95 110.58-123.187 63.431-6.445 106.735 18.6 142.125 13.907 18.543-2.431 41.213-8.876 70.836-22.387 72.306-32.959 122.395-1.866 151.227 33.977 41.383 51.445 39.178 78.638 39.178 78.638-3.279 7.689-85.196 42.288-147.044 42.909z" fill="#fff"/><path d="M500.488 520.502c-76.094 46.357-136.754 185.034-194.758 188.483-46.527-19.221-97.012-6.162-140.146 47.318l-.057 1.187c-14.19-5.088-27.475-3.675-40.478 6.388-.622-30.867-41.269-57.099-55.572-50.711-12.55 5.597-5.597 57.664 26.91 81.691 16.677 12.324 47.036 17.186 77.338 7.915 74.963 32.507 150.266 21.426 201.994-14.586 43.192-29.737 299.91-82.143 306.129-221.498 5.258-116.176-105.944-92.093-181.36-46.187z" fill="#fff"/><path d="M264.401 823.048c-30.365 0-61.376-6.533-90.737-19.212-28.377 8.575-59.631 5.307-77.872-8.173-25.691-18.989-34.842-53.699-32.938-71.179.709-6.504 2.858-10.733 6.215-12.23 6.02-2.69 16.49-.092 27.322 6.78 12.994 8.243 28.227 24.278 29.569 42.913 11.915-8.6 24.585-10.512 38.641-5.836.031-.159.1-.309.203-.437 41.291-51.195 91.387-68.131 141.093-47.704 30.814-2.025 63.153-43.648 97.386-87.708 30.255-38.94 61.54-79.206 96.684-100.615v-.001c26.515-16.139 55.164-28.237 80.67-34.065 29.74-6.797 54.631-4.96 71.979 5.314 21.753 12.88 31.923 38.396 30.229 75.838-4.757 106.591-155.301 162.681-245.248 196.193-28.524 10.627-51.055 19.021-61.313 26.084-26.632 18.541-58.709 30.008-92.759 33.159a207.12 207.12 0 0 1-19.124.879zm-90.676-21.275c.136 0 .271.027.398.083 35.35 15.329 73.117 21.669 109.22 18.323 33.707-3.12 65.452-14.466 91.805-32.812 10.466-7.206 33.099-15.639 61.753-26.314 89.483-33.34 239.251-89.141 243.948-194.409 1.659-36.646-8.182-61.553-29.25-74.027-38.677-22.901-105.295 1.168-150.591 28.739-34.83 21.219-66 61.337-96.145 100.134-34.603 44.536-67.288 86.603-99.074 88.492a1.033 1.033 0 0 1-.441-.074c-48.802-20.156-98.076-3.553-138.781 46.77l-.041.86a.998.998 0 0 1-1.336.893c-14.471-5.188-27.401-3.148-39.529 6.238a1 1 0 0 1-1.611-.771c-.376-18.654-15.711-34.917-28.729-43.175-10.117-6.419-20.102-9.028-25.436-6.644-2.633 1.174-4.423 4.946-5.042 10.621-1.927 17.692 8.168 51.636 32.138 69.354 17.832 13.178 48.556 16.297 76.451 7.762.096-.028.194-.043.293-.043z" fill="#172635"/><path d="M1002.562 576.244c-7.971-62.187-52.067-105.265-117.759-128.048-5.823-2.035-12.098-2.431-18.091-1.018-48.167 11.194-81.691 39.234-121.943 43.418-48.393 5.032-100.46-18.939-157.559-6.727-25.723 87.74-9.215 217.767 22.67 292.957 68.292-55.685 135.398-107.47 213.357-120.529 126.636-13.57 176.895-42.119 179.325-80.053z" fill="#0275a4"/><path d="M1005.615 572.512c-25.497 31.32-46.866 53.424-82.369 79.147 24.027 12.946 36.238 38.16 22.161 72.476 33.581-46.47 54.838-96.672 60.208-151.623z" fill="#0275a4"/><path d="M945.802 729.149a1 1 0 0 1-.924-1.382c13.364-32.329 5.789-60.498-20.262-75.352a1.001 1.001 0 0 1-.095-1.676c35.877-26.23 56.908-48.55 81.11-78.236a1 1 0 1 1 1.55 1.263c-24.028 29.473-44.946 51.717-80.251 77.687 25.941 15.59 33.354 44.281 19.796 77.078a.997.997 0 0 1-.924.618zm174.576-259.754c58.003-9.95 134.945 59.191 96.729 96.785 11.194 39.687-55.459 28.719-76.716 59.247 0 .001-69.536-147.495-20.013-156.032z" fill="#172635"/><path d="M1083.123 497.097c-16.564 8.197-25.214 24.536-31.828 32.281-11.589 13.681-31.093 9.215-46.527 36.803-21.37 38.273 13.964 85.931 77.055 64.392-3.957 20.182 21.992 23.801 32.224 7.519 47.997 1.979 87.91-61.339 10.968-48.167 78.694-55.234 8.083-117.59-41.892-92.828z" fill="#fff"/><g fill="#172635"><path d="M1096.092 649.327c-2.414 0-4.719-.426-6.746-1.229-6.49-2.572-9.693-8.506-8.769-16.055-30.142 9.812-57.179 4.739-72.555-13.691-12.389-14.851-13.97-35.028-4.126-52.658 9.569-17.105 20.694-22.104 30.509-26.515 6.042-2.715 11.75-5.278 16.128-10.447 1.521-1.781 3.13-3.994 4.994-6.558 6.008-8.263 14.236-19.579 27.154-25.973 28.07-13.906 60.269-.788 72.731 20.191 13.527 22.772 3.635 49.438-26.428 71.894 24.73-3.554 34.316 1.572 37.978 6.671 3.181 4.428 2.998 10.453-.514 16.967-7.542 13.985-28.946 27.887-51.868 27.188-4.713 7.127-11.992 10.215-18.488 10.215zm-14.269-19.754a.999.999 0 0 1 .981 1.192c-1.456 7.423 1.197 13.062 7.278 15.473 8.851 3.508 18.705-1.658 23.118-8.679a.97.97 0 0 1 .888-.467c22.358.927 43.285-12.556 50.599-26.119 3.129-5.803 3.36-11.076.65-14.85-4.986-6.94-19.246-8.79-40.154-5.214a1 1 0 0 1-.743-1.803c31.746-22.281 42.681-49.082 29.251-71.692-12.005-20.209-43.047-32.838-70.124-19.42-12.477 6.175-20.538 17.261-26.424 25.356-1.888 2.597-3.519 4.839-5.088 6.677-4.669 5.512-10.577 8.166-16.832 10.977-9.532 4.282-20.337 9.137-29.583 25.665-9.43 16.89-7.93 36.202 3.916 50.401 5.654 6.777 27.551 27.712 71.943 12.557a.98.98 0 0 1 .324-.054zm1.3-132.476h.01zm35.842-25.44c12.664-87.57-102.382-52.972-92.715 43.983 2.374 23.518 37.029-16.79 37.029-16.79s29.398-19.392 55.686-27.193z"/><path d="M1125.014 589.925c-3.731-5.766-11.589-40.817 6.728-62.017-4.353-18.826-14.19-27.814-25.384-29.624-16.904-2.714-33.355 14.868-40.761 39.686-9.837 32.846-31.263 3.222-33.242-7.293-9.045-48.053 35.447-62.243 35.447-62.243s94.185-12.211 113.859 40.874c19.673 53.141-56.647 80.617-56.647 80.617zm208.382-21.257c-34.542 10.289-64.505 23.857-101.025 42.004-9.498-1.753-17.921-21.144-9.667-36.577 34.825-19.504 58.173-28.662 94.354-37.708 14.303 6.163 17.695 17.582 16.338 32.281z"/><path d="M1272.962 592.412c1.696 7.802-6.614 12.155-11.363 6.558-6.784-7.915-15.151-30.641-16.395-38.33-1.357-8.48 5.484-11.533 10.346-5.145 6.049 8.029 15.716 29.342 17.412 36.917z"/></g><path d="M1266.704 602.505c-2.15 0-4.266-1-5.868-2.888-6.844-7.986-15.344-30.933-16.619-38.817-.857-5.355 1.292-8.313 3.589-9.297 2.773-1.188 6.045.11 8.539 3.387 6.097 8.092 15.837 29.464 17.593 37.304l.001.006c.9 4.139-.697 7.889-4.067 9.553a7.131 7.131 0 0 1-3.168.752zm-16.791-49.43c-.456 0-.899.087-1.319.267-2.015.863-2.958 3.666-2.402 7.141 1.246 7.701 9.515 30.078 16.167 37.838 2.167 2.554 4.844 2.521 6.628 1.64 1.913-.944 3.846-3.432 2.999-7.332-1.68-7.5-11.386-28.768-17.234-36.53-1.485-1.952-3.243-3.024-4.839-3.024zm32.603 8.922c-2.332 0-4.24 1.908-4.24 4.24s1.908 4.24 4.24 4.24 4.24-1.908 4.24-4.24c0-2.402-1.908-4.24-4.24-4.24zm21.596-8.536c-2.332 0-4.24 1.908-4.24 4.24s1.908 4.24 4.24 4.24 4.24-1.908 4.24-4.24-1.908-4.24-4.24-4.24z" fill="#fff"/><path d="M1085.61 1013.682c-5.618 0-9.765-1.508-11.993-4.36-1.696-2.172-2.249-5.009-1.652-8.446-40.921 4.236-93.549 1.727-152.319-7.274a1 1 0 1 1 .303-1.977c59.262 9.076 112.229 11.536 153.173 7.117a1 1 0 0 1 1.077 1.236c-.859 3.438-.525 6.167.994 8.113 1.834 2.349 5.436 3.591 10.416 3.591 13.151 0 33.346-8.319 44.099-18.167a1 1 0 0 1 1.351 1.475c-11.063 10.133-31.876 18.692-45.449 18.692zM691.629 714.733a1.001 1.001 0 0 1-.563-1.828c19.212-13.056 37.133-23.637 54.787-32.35 26.502-13.054 51.724-21.479 77.105-25.756a.999.999 0 1 1 .332 1.972c-25.188 4.244-50.229 12.61-76.553 25.577-17.57 8.671-35.413 19.207-54.548 32.21a.975.975 0 0 1-.56.175zm121.829 132.345c-.24 0-.474-.087-.657-.246-40.601-35.376-68.127-70.107-84.153-106.178a1 1 0 0 1 .223-1.129l76.885-73.438a1.001 1.001 0 0 1 1.568.242c15.61 28.524 46.192 59.035 83.905 83.709a1.002 1.002 0 0 1 .229 1.467l-77.225 95.202a.997.997 0 0 1-.775.371zm-82.695-106.594c15.842 35.337 42.865 69.425 82.572 104.158l75.875-93.538c-37.056-24.412-67.194-54.437-83.008-82.675zM1058.7 817.68a1 1 0 0 1-.71-1.704c7.867-7.931 14.466-15.175 20.175-22.146 13.38-16.225 22.087-30.819 26.621-44.623a1 1 0 1 1 1.9.625c-4.613 14.043-13.436 28.851-26.975 45.269-5.747 7.018-12.388 14.309-20.301 22.284a.994.994 0 0 1-.71.295z" fill="#172635"/><path d="M999.905 1060.832a1 1 0 0 1-1-1v-4.654c-54.506-.066-109.822-5.528-155.864-15.398a1 1 0 1 1 .42-1.956c46.191 9.901 101.75 15.354 156.445 15.354a1 1 0 0 1 1 1v5.653a1.001 1.001 0 0 1-1.001 1.001z" fill="#fff"/><path d="M1331.021 417.989a.999.999 0 0 1-.908-1.417c8.922-19.435 19.06-37.146 44.639-40.452 1.236-7.862 3.718-15.617 7.384-23.06a1 1 0 0 1 1.794.883c-3.691 7.494-6.152 15.308-7.314 23.223a1.002 1.002 0 0 1-.874.848c-25.105 2.931-35.05 20.306-43.812 39.393a.998.998 0 0 1-.909.582zm-87.173 108.657a.998.998 0 0 1-.793-.391c-9.407-12.235-12.846-27.082-9.683-41.806 3.058-14.249 11.958-26.26 24.418-32.952a.999.999 0 1 1 .946 1.761c-11.943 6.414-20.475 17.936-23.409 31.61-3.038 14.14.269 28.404 9.312 40.167a1 1 0 0 1-.791 1.611z" fill="#172635"/><path d="M1035.296 537.896a1 1 0 0 1-.934-.641c-13.026-33.868 5.238-63.962 27.721-77.591 12.341-7.496 25.812-10.14 36.96-7.248 8.781 2.277 15.971 7.958 20.791 16.427a1 1 0 0 1-1.739.99c-4.612-8.104-11.191-13.312-19.555-15.48-10.627-2.757-23.538-.196-35.42 7.021-21.794 13.212-39.505 42.368-26.892 75.162a1 1 0 0 1-.932 1.36z" fill="#fff"/><path d="M1102.966 627.898c-2.31 0-4.784-.382-7.565-1.169a1 1 0 1 1 .544-1.923c2.602.735 4.898 1.093 7.021 1.093a1 1 0 1 1 0 1.999z" fill="#172635"/><path d="M1103.022 627.841a1 1 0 1 1 0-2c3.849 0 7.016-1.186 8.918-3.337 1.672-1.869 2.17-4.254 1.303-6.229-.62-1.432-1.853-2.471-3.568-3.01a1.002 1.002 0 0 1-.156-1.845c12.499-6.394 24.95-8.764 37.004-7.054a1 1 0 1 1-.282 1.981c-11.043-1.568-22.455.425-33.951 5.933 1.256.79 2.217 1.882 2.785 3.195 1.184 2.697.555 5.901-1.642 8.357-2.281 2.585-5.98 4.009-10.411 4.009z" fill="#172635"/><path d="M395.167 1076.039a.993.993 0 0 1-.757-.347 1011.544 1011.544 0 0 1-41.989-52.005c-14.941-19.807-28.537-39.363-40.412-58.127a1.001 1.001 0 0 1 1.69-1.07c11.845 18.718 25.41 38.229 40.318 57.992a1010.462 1010.462 0 0 0 41.906 51.903 1 1 0 0 1-.756 1.654z" fill="#fff"/></svg></g><g transform="translate(912.3529411764706 132.35294117647058) rotate(0.0 576.1764705882351 456.1764705882353) scale(1.7894540593979993 1.7891062462647649)"><svg width="643.969" height="509.949" viewBox="0 0 643.969 509.949"><path d="m1.31 214.259 35.977 265.357c2.777 20.48 23.09 33.719 42.948 27.992l170.584-49.202c22.56-6.507 31.815-33.437 18.022-52.438L103.335 177.971a33.869 33.869 0 0 0-36.795-12.646l-41.055 11.842C9.342 181.823-.948 197.61 1.31 214.259z" fill="#fff"/><path d="M70.841 509.937a34.835 34.835 0 0 1-19.032-5.659 34.847 34.847 0 0 1-15.515-24.527L.318 214.394c-2.306-17.013 8.395-33.429 24.89-38.187l41.056-11.842c14.062-4.055 29.284 1.176 37.881 13.019L269.65 405.381c6.768 9.324 8.502 20.921 4.757 31.817-3.744 10.896-12.241 18.977-23.312 22.17L80.511 508.569a34.86 34.86 0 0 1-9.67 1.368zM2.3 214.125l35.977 265.357a32.836 32.836 0 0 0 14.624 23.12 32.847 32.847 0 0 0 27.056 4.045l170.584-49.202c10.436-3.01 18.445-10.627 21.976-20.898 3.529-10.271 1.895-21.203-4.485-29.992L102.525 178.559c-8.102-11.163-22.452-16.096-35.707-12.272l-41.056 11.842C10.213 182.613.127 198.088 2.3 214.125z" fill="#0f3336"/><path d="M104.114 500.32a34.837 34.837 0 0 1-19.032-5.659 34.847 34.847 0 0 1-15.515-24.527L33.59 204.776a1 1 0 0 1 1.982-.268l35.977 265.357a32.844 32.844 0 0 0 14.624 23.121 32.846 32.846 0 0 0 27.056 4.045 1 1 0 1 1 .554 1.922 34.933 34.933 0 0 1-9.669 1.367z" fill="#0f3336"/><path d="M618.467 352.365 227.518 465.127c-14.364 4.143-29.746-1.622-37.848-14.185L39.729 218.455c-12.301-19.072-2.73-44.609 19.076-50.899L449.754 54.795c14.364-4.143 29.746 1.622 37.848 14.185l149.941 232.486c12.301 19.073 2.73 44.61-19.076 50.899z" fill="#fff"/><path d="M295.103 446.634c-.328 0-.65-.162-.842-.458L144.909 214.603a1 1 0 0 1 1.682-1.084l149.353 231.573a1 1 0 0 1-.841 1.542zm91.781-26.473c-.328 0-.65-.162-.842-.458L236.691 188.13a1 1 0 0 1 1.682-1.084l149.352 231.573a1 1 0 0 1-.841 1.542zm91.783-26.473c-.328 0-.65-.162-.842-.458L328.473 161.657a1 1 0 0 1 1.682-1.084l149.352 231.573a1 1 0 0 1-.84 1.542zm91.782-26.472c-.328 0-.65-.162-.842-.458L420.255 135.185a1 1 0 0 1 1.682-1.084L571.29 365.674a1 1 0 0 1-.841 1.542z" fill="#0f3336"/><path d="M103.752 318.725a1 1 0 0 1-.277-1.961L562.384 184.4a1 1 0 1 1 .554 1.922l-458.91 132.364a1.022 1.022 0 0 1-.276.039zm49.784 77.191a1 1 0 0 1-.277-1.961l458.91-132.364a1 1 0 1 1 .554 1.922l-458.91 132.364a1.029 1.029 0 0 1-.277.039z" fill="#0f3336"/><path d="M218.006 467.48c-11.606 0-22.606-5.81-29.178-15.996L53.473 241.613a1 1 0 0 1 1.682-1.084L190.51 450.4c7.924 12.285 22.685 17.818 36.73 13.766l390.95-112.762c10.087-2.909 17.984-10.216 21.669-20.046s2.534-20.528-3.156-29.35L512.037 108.712a1 1 0 0 1 1.682-1.084l124.666 193.297c6.035 9.359 7.256 20.707 3.348 31.136s-12.287 18.179-22.987 21.266l-390.95 112.761a35.32 35.32 0 0 1-9.79 1.392z" fill="#0f3336"/><path d="m53.968 240.533-14.239-22.078c-12.301-19.072-2.73-44.609 19.076-50.899L449.754 54.795c14.364-4.143 29.746 1.622 37.848 14.185l25.275 39.19z" fill="#E6E6E6"/><path d="M53.968 241.534a1 1 0 0 1-.841-.458l-14.239-22.078c-6.036-9.359-7.256-20.708-3.348-31.136s12.287-18.179 22.987-21.265L449.476 53.834c14.906-4.298 30.561 1.571 38.967 14.604l25.275 39.19a1.001 1.001 0 0 1-.563 1.503L54.246 241.494a.989.989 0 0 1-.278.04zm405.29-187.091c-3.058 0-6.159.428-9.228 1.313L59.083 168.518c-10.087 2.909-17.985 10.216-21.669 20.046-3.685 9.83-2.534 20.528 3.156 29.35l13.836 21.453 456.902-131.785-24.547-38.059c-6.192-9.603-16.562-15.08-27.503-15.08z" fill="#E6E6E6"/><g fill="#0f3336"><path d="M96.18 186.367a1 1 0 0 1-.846-1.531c7.106-11.342 8.47-28.969 3.557-46.002-3.716-12.882-10.479-24.036-19.046-31.407-8.448-7.269-17.625-9.966-25.841-7.596-17.123 4.939-24.848 30.471-17.22 56.917 1.543 5.354 3.63 10.45 6.202 15.146a.999.999 0 1 1-1.753.96c-2.643-4.825-4.786-10.057-6.37-15.552-7.934-27.505.405-54.148 18.587-59.392 8.884-2.562 18.722.278 27.7 8.002 8.857 7.621 15.841 19.117 19.663 32.369 5.065 17.563 3.615 35.809-3.783 47.618a1.005 1.005 0 0 1-.85.468zm112.097-32.332a1 1 0 0 1-.846-1.531c7.106-11.342 8.47-28.97 3.557-46.003-3.716-12.882-10.479-24.036-19.046-31.407-8.446-7.269-17.628-9.966-25.84-7.596-8.217 2.37-14.548 9.541-17.827 20.191-3.324 10.8-3.109 23.843.606 36.725 1.507 5.225 3.532 10.206 6.02 14.805a.999.999 0 1 1-1.759.951c-2.555-4.725-4.635-9.84-6.182-15.202-3.822-13.252-4.034-26.7-.596-37.868 3.484-11.317 10.297-18.961 19.184-21.524 8.89-2.564 18.724.279 27.699 8.002 8.857 7.621 15.841 19.117 19.663 32.369 5.065 17.563 3.615 35.81-3.783 47.619a1.004 1.004 0 0 1-.85.469zm112.097-32.331a1 1 0 0 1-.846-1.531c7.107-11.342 8.471-28.97 3.557-46.004-3.716-12.882-10.479-24.036-19.046-31.407-8.447-7.269-17.628-9.966-25.84-7.596-17.123 4.939-24.849 30.472-17.221 56.917 1.471 5.097 3.435 9.964 5.837 14.465a1 1 0 1 1-1.764.942c-2.469-4.624-4.485-9.621-5.995-14.853-7.934-27.505.405-54.148 18.588-59.393 8.886-2.564 18.724.279 27.699 8.002 8.857 7.621 15.841 19.117 19.663 32.369 5.066 17.564 3.616 35.811-3.783 47.62a1.002 1.002 0 0 1-.849.469zM432.47 89.372a1 1 0 0 1-.846-1.531c7.107-11.342 8.471-28.97 3.558-46.005-3.716-12.882-10.479-24.036-19.046-31.407-8.448-7.269-17.628-9.966-25.841-7.596-8.217 2.37-14.547 9.541-17.826 20.191-3.324 10.8-3.109 23.843.606 36.725 1.432 4.965 3.334 9.718 5.654 14.125a1 1 0 1 1-1.77.932c-2.384-4.528-4.337-9.407-5.807-14.503-3.822-13.252-4.034-26.7-.596-37.868C374.04 11.118 380.853 3.474 389.739.911c8.882-2.563 18.722.278 27.7 8.002 8.857 7.621 15.841 19.117 19.663 32.369 5.065 17.565 3.615 35.812-3.784 47.621a.997.997 0 0 1-.848.469z"/><circle cx="96.253" cy="185.361" r="5.841"/><circle cx="208.329" cy="153.035" r="5.841"/><circle cx="320.398" cy="120.704" r="5.841"/><circle cx="432.547" cy="88.372" r="5.841"/></g></svg></g><g transform="translate(238.23529411764704 236.47058823529412) rotate(4.404108921430386 367.05882352941177 455.2941176470588) scale(1.8062451795469943 1.8092463004828512)"><svg width="406.433" height="503.297" viewBox="0 0 406.433 503.297"><path d="M0 406.8 155.367.006l250.087 95.516-155.367 406.794z" fill="#E6E6E6"/><path d="M250.086 503.297a1 1 0 0 1-.968-.754L189.91 269.5c-3.912-15.394 2.313-31.696 15.49-40.565l199.474-134.26a1 1 0 0 1 1.117 1.659l-199.474 134.26c-12.479 8.399-18.374 23.836-14.67 38.413l59.208 233.044a1 1 0 0 1-.969 1.246z" fill="#0f3336"/><path d="m23.121 415.622 199.474-134.259a36.705 36.705 0 0 0 15.08-39.489L178.466 8.829 155.346 0 0 406.794z" fill="#E6E6E6"/><path d="M23.122 416.622a1 1 0 0 1-.56-1.83l199.474-134.259c12.478-8.398 18.373-23.835 14.67-38.413L177.497 9.075a1 1 0 1 1 1.938-.492l59.209 233.045c3.911 15.395-2.314 31.696-15.49 40.565L23.68 416.452a1 1 0 0 1-.558.17z" fill="#0f3336"/></svg></g><g transform="translate(446.4705882352941 144.70588235294116) rotate(4.404108921430386 101.47058823529412 101.47058823529412) scale(1.8267519080291306 1.8267519080291306)"><svg width="111.094" height="111.094" viewBox="0 0 111.094 111.094"><circle cx="55.547" cy="55.547" fill="#9DE9FF" r="55.532"/><path d="M39.727 70.998a3.002 3.002 0 0 1-2.893-2.213l-6.778-24.9a2.999 2.999 0 0 1 4.02-3.568l45.191 18.29a3.001 3.001 0 0 1-2.252 5.561l-39.581-16.02 5.188 19.061a3 3 0 0 1-2.895 3.789z" fill="#fff"/></svg></g><g transform="translate(2101.7647058823527 236.47058823529412) rotate(0.0 113.82352941176487 110.29411764705883) scale(1.8051467672946613 1.7986940042573887)"><svg width="126.11" height="122.638" viewBox="0 0 126.11 122.638"><path d="m82.102 38.131 44.008 3.313L96.712 74.36l10.449 42.878-40.39-17.788-37.55 23.188 4.436-43.91L0 50.181l43.131-9.35L59.881 0z" fill="#9DE9FF"/></svg></g><g transform="translate(398.8235294117647 1277.6470588235293) rotate(0.0 269.11764705882354 269.11764705882354) scale(1.7670116877684556 1.7676674497852045)"><svg width="304.602" height="304.489" viewBox="0 0 304.602 304.489"><ellipse cx="152.301" cy="152.245" fill="#0275a4" rx="152.301" ry="152.245"/><path d="M131.384 70.667a13.554 13.554 0 0 0-10.685 18.034c2.148 5.993 8.423 9.724 14.755 8.763a13.554 13.554 0 0 0 10.685-18.034c-2.205-5.993-8.48-9.724-14.755-8.763zm-14.303 25.496c-13.003 10.628-18.034 27.588-12.833 45.623 10.289 35.729-7.01 50.484-12.833 57.947 17.299 15.773 59.077 12.72 77.621 7.858 18.543-4.805 52.18-22.218 61.508-47.997-8.876-3.222-31.433-6.445-41.722-42.174-5.201-18.034-18.43-29.737-35.164-31.772-.622 8.197-6.275 15.547-14.642 17.978-8.311 2.318-17.017-.905-21.935-7.463zm53.989 118.382c-5.314 1.413-12.607 2.657-20.635 3.335 1.809 9.667 10.289 17.017 20.465 17.017 11.533 0 20.861-9.328 20.861-20.861 0-2.431-.452-4.805-1.187-7.01-7.179 3.561-14.02 6.105-19.504 7.519z" fill="#fff"/></svg></g><g transform="translate(1005.8823529411765 937.0588235294117) rotate(0.0 706.7647058823529 301.7647058823529) scale(1.7653560446914978 1.7670826601999936)"><svg width="800.705" height="341.54" viewBox="0 0 800.705 341.54"><g fill="#172635"><path d="M35.428 341.54a1 1 0 0 1-.276-1.961l327.894-94.523 436.382-125.787a1.001 1.001 0 0 1 .554 1.922L363.6 246.977 35.706 341.501a1.03 1.03 0 0 1-.278.039zm-17.242-59.586a1 1 0 0 1-.277-1.961l336.77-97.068 427.45-123.243a1 1 0 0 1 .554 1.922l-427.45 123.242-336.77 97.068a.987.987 0 0 1-.277.04zM.999 222.368a1 1 0 0 1-.276-1.961l328.969-94.863L764.999.039a1 1 0 1 1 .554 1.922L330.246 127.465 1.277 222.329a1.03 1.03 0 0 1-.278.039z"/></g></svg></g><g transform="translate(1944.7058823529412 132.35294117647058) rotate(0.0 244.41176470588232 215.29411764705878) scale(1.7652411901506762 1.768554663197851)"><svg width="276.916" height="243.469" viewBox="0 0 276.916 243.469"><g><g><path style="fill:#172635" d="M874.864 1005.155c4.855 6.195 10.824 11.607 17.75 15.952 20.162 12.651 44.893 14.123 66.208 3.955l19.997 9.217c.112.057.375.165.688.165h.167a.609.609 0 0 0 .104-.009c.946-.172 1.581-1.05 1.416-1.958l-2.954-21.295c12.777-12.937 19.81-30.081 19.81-48.309.001-37.969-30.889-68.858-68.859-68.857-18.361 0-35.644 7.171-48.665 20.193-13.021 13.021-20.193 30.304-20.192 48.665.002 15.632 5.217 30.396 14.53 42.281zm104.645 28.159a.515.515 0 0 1-.2-.053l-20.255-9.336a.567.567 0 0 0-.483.004c-21.016 10.125-45.448 8.712-65.356-3.779-19.88-12.474-31.749-33.886-31.749-57.277 0-18.059 7.053-35.058 19.861-47.866s29.807-19.861 47.865-19.861c37.344 0 67.727 30.382 67.727 67.727 0 18.021-6.989 34.966-19.679 47.711a.564.564 0 0 0-.159.476l2.996 21.596c.055.304-.151.581-.46.658h-.108z" transform="translate(2419.4117647058824 112.94117647058823) rotate(51.93656567438005 -213.52941176470597 217.9411764705882) scale(-1.7677080642306229 1.7692400075544874)"/></g></g></svg></g></svg>